<svg width="35" height="35" viewBox="0 0 35 35" fill="none" xmlns="http://www.w3.org/2000/svg">
<path d="M18.5 27.7502L17.94 27.1202C17.59 26.7702 9.4 17.1102 9.4 11.3002C9.4 6.2602 13.46 2.2002 18.5 2.2002C23.54 2.2002 27.6 6.2602 27.6 11.3002C27.6 17.1102 19.41 26.7702 19.06 27.1902L18.5 27.7502ZM18.5 3.6002C14.23 3.6002 10.8 7.0302 10.8 11.3002C10.8 15.7802 16.68 23.3402 18.5 25.5802C20.32 23.3402 26.2 15.7802 26.2 11.3002C26.2 7.0302 22.77 3.6002 18.5 3.6002Z" fill="#FFF8F8"/>
<path d="M18.5 14.7998C16.54 14.7998 15 13.2598 15 11.2998C15 9.3398 16.54 7.7998 18.5 7.7998C20.46 7.7998 22 9.3398 22 11.2998C22 13.2598 20.46 14.7998 18.5 14.7998ZM18.5 9.1998C17.31 9.1998 16.4 10.1098 16.4 11.2998C16.4 12.4898 17.31 13.3998 18.5 13.3998C19.69 13.3998 20.6 12.4898 20.6 11.2998C20.6 10.1098 19.69 9.1998 18.5 9.1998Z" fill="#FFF8F8"/>
</svg>
