<svg width="35" height="35" viewBox="0 0 35 35" fill="none" xmlns="http://www.w3.org/2000/svg">
<path fill-rule="evenodd" clip-rule="evenodd" d="M7.29167 1.4585C5.74457 1.4585 4.26084 2.07308 3.16688 3.16704C2.07292 4.261 1.45834 5.74473 1.45834 7.29183V27.7085C1.45834 29.2556 2.07292 30.7393 3.16688 31.8333C4.26084 32.9272 5.74457 33.5418 7.29167 33.5418H27.7083C29.2554 33.5418 30.7392 32.9272 31.8331 31.8333C32.9271 30.7393 33.5417 29.2556 33.5417 27.7085V7.29183C33.5417 5.74473 32.9271 4.261 31.8331 3.16704C30.7392 2.07308 29.2554 1.4585 27.7083 1.4585H7.29167ZM29.1667 17.5002C29.1667 20.5944 27.9375 23.5618 25.7496 25.7497C23.5617 27.9377 20.5942 29.1668 17.5 29.1668C14.4058 29.1668 11.4383 27.9377 9.25042 25.7497C7.0625 23.5618 5.83334 20.5944 5.83334 17.5002C5.83334 14.406 7.0625 11.4385 9.25042 9.25058C11.4383 7.06266 14.4058 5.8335 17.5 5.8335C20.5942 5.8335 23.5617 7.06266 25.7496 9.25058C27.9375 11.4385 29.1667 14.406 29.1667 17.5002ZM9.52584 17.156C9.52584 17.0481 9.59729 16.9445 9.69792 16.9081L22.769 11.925C22.8144 11.9091 22.8631 11.9053 22.9104 11.914C22.9577 11.9227 23.002 11.9436 23.0388 11.9745C23.1117 12.0372 23.1438 12.1408 23.1219 12.2356L20.5144 23.1993C20.5046 23.2421 20.4842 23.2817 20.4552 23.3146C20.4262 23.3474 20.3894 23.3725 20.3481 23.3875C20.3073 23.4029 20.2632 23.408 20.2199 23.4021C20.1766 23.3963 20.1355 23.3797 20.1002 23.3539L15.1783 19.3902L19.5708 15.4497C19.599 15.4239 19.6169 15.3888 19.6215 15.3508C19.626 15.3128 19.6169 15.2745 19.5956 15.2427C19.5737 15.2111 19.5412 15.1884 19.504 15.1788C19.4668 15.1691 19.4274 15.1732 19.3929 15.1902L12.8669 18.5604L9.69792 17.4039C9.64834 17.3836 9.60571 17.3494 9.57516 17.3054C9.54462 17.2614 9.52749 17.2095 9.52584 17.156Z" fill="white"/>
</svg>
