<svg width="35" height="35" viewBox="0 0 35 35" fill="none" xmlns="http://www.w3.org/2000/svg">
<path d="M17.0625 32.4419C9.10125 32.4419 2.625 25.7151 2.625 17.4458C2.625 9.17654 9.10125 2.44971 17.0625 2.44971C25.0238 2.44971 31.5 9.17654 31.5 17.4458C31.5 25.7151 25.0238 32.4419 17.0625 32.4419ZM17.0625 4.59201C10.2356 4.59201 4.6875 10.3548 4.6875 17.4458C4.6875 24.5368 10.2356 30.2996 17.0625 30.2996C23.8894 30.2996 29.4375 24.5368 29.4375 17.4458C29.4375 10.3548 23.8894 4.59201 17.0625 4.59201Z" fill="white"/>
<path d="M21.875 22.9688C21.6781 22.9688 21.4813 22.925 21.3063 22.8156L15.8375 19.5344C15.6763 19.4362 15.5432 19.298 15.4512 19.1332C15.3592 18.9683 15.3114 18.7825 15.3125 18.5938V9.84375C15.3125 9.23125 15.7938 8.75 16.4063 8.75C17.0188 8.75 17.5 9.23125 17.5 9.84375V17.9813L22.4438 20.9344C22.6474 21.0592 22.8048 21.247 22.8921 21.4693C22.9794 21.6916 22.9918 21.9363 22.9275 22.1663C22.8632 22.3963 22.7256 22.5991 22.5357 22.7439C22.3458 22.8887 22.1138 22.9676 21.875 22.9688Z" fill="white"/>
</svg>
