<svg width="35" height="35" viewBox="0 0 35 35" fill="none" xmlns="http://www.w3.org/2000/svg">
<g clip-path="url(#clip0_22_38)">
<path d="M16.6228 0.00558118C13.8141 0.0394874 7.77546 0.50105 4.39796 3.59964C1.88562 6.08902 1.00843 9.76949 0.90562 14.3206C0.820307 18.8553 0.717495 27.3712 8.92609 29.69V33.2217C8.92609 33.2217 8.87468 34.6348 9.80875 34.9246C10.9594 35.2889 11.6145 34.2017 12.7083 33.0335L14.7481 30.7268C20.3645 31.1939 24.6662 30.1176 25.1617 29.9579C26.3014 29.5937 32.7206 28.7734 33.7695 20.2564C34.8458 11.4604 33.2456 5.91839 30.357 3.41152H30.3395C29.4678 2.60871 25.9645 0.0558937 18.1377 0.0274562C18.1377 0.0274562 17.5569 -0.0108251 16.6228 0.00558118ZM16.7191 2.47855C17.5164 2.47308 18.0009 2.50699 18.0009 2.50699C24.6258 2.52449 27.7878 4.51839 28.5337 5.18996C30.9662 7.27464 32.2197 12.2709 31.302 19.6143C30.4303 26.7346 25.2241 27.1853 24.2605 27.4926C23.8503 27.6239 20.0616 28.5579 15.2884 28.2506C15.2884 28.2506 11.7337 32.5403 10.6225 33.645C10.4464 33.8385 10.2408 33.8954 10.1095 33.867C9.9214 33.821 9.86453 33.5881 9.87546 33.2687L9.90937 27.4073C2.94765 25.4823 3.35781 18.2187 3.43218 14.4245C3.51749 10.6303 4.22953 7.52621 6.34921 5.42402C9.20281 2.84386 14.3303 2.49605 16.7169 2.47855H16.7191ZM17.2441 6.27167C17.1868 6.2711 17.1299 6.28187 17.0768 6.30336C17.0237 6.32485 16.9753 6.35665 16.9346 6.39691C16.8938 6.43717 16.8614 6.48511 16.8392 6.53795C16.8171 6.59079 16.8056 6.6475 16.8055 6.7048C16.8055 6.9498 17.0045 7.14339 17.2441 7.14339C18.3286 7.12198 19.4067 7.3159 20.4158 7.71391C21.4249 8.11193 22.345 8.70613 23.123 9.46214C24.7122 11.0054 25.4866 13.0792 25.5161 15.7906C25.5161 16.0301 25.7097 16.2292 25.9547 16.2292V16.2117C26.0701 16.212 26.1811 16.1666 26.2632 16.0855C26.3454 16.0043 26.3921 15.894 26.3933 15.7785C26.4473 14.5022 26.2407 13.2282 25.7862 12.0343C25.3317 10.8404 24.6388 9.75164 23.7497 8.83433C22.0183 7.1423 19.8242 6.27058 17.2441 6.27058V6.27167ZM11.4789 7.27464C11.1693 7.22923 10.8535 7.29138 10.5842 7.45074H10.5612C9.93616 7.81766 9.37288 8.28091 8.89218 8.82339C8.49296 9.28496 8.2764 9.75199 8.21953 10.2015C8.18562 10.4695 8.20859 10.7375 8.28843 10.9934L8.31687 11.0109C8.7664 12.3321 9.35375 13.6031 10.0712 14.7996C10.9957 16.4805 12.1331 18.0352 13.4553 19.4251L13.4947 19.482L13.557 19.5279L13.5964 19.5739L13.6423 19.6132C15.0374 20.9392 16.5958 22.0819 18.2798 23.0137C20.2048 24.0615 21.373 24.557 22.0741 24.7626V24.7735C22.2797 24.8359 22.4667 24.8643 22.6548 24.8643C23.2524 24.8207 23.8181 24.5781 24.2616 24.1753C24.8028 23.6956 25.2611 23.1298 25.6178 22.5007V22.4898C25.9536 21.8576 25.8398 21.2593 25.3553 20.8546C24.3848 20.0066 23.3355 19.2532 22.2217 18.6048C21.4758 18.2001 20.7178 18.4451 20.4105 18.8553L19.7553 19.681C19.4195 20.0912 18.8092 20.0343 18.8092 20.0343L18.7917 20.0453C14.2406 18.8826 13.0266 14.2746 13.0266 14.2746C13.0266 14.2746 12.9697 13.6479 13.3908 13.3285L14.2111 12.6679C14.6037 12.3485 14.8772 11.5917 14.4561 10.8446C13.8123 9.72922 13.0605 8.67966 12.2117 7.71105C12.0261 7.48271 11.7658 7.32735 11.4767 7.27246L11.4789 7.27464ZM18.0009 8.57402C17.4202 8.57402 17.4202 9.45121 18.0064 9.45121C19.4648 9.47534 20.854 10.0777 21.8684 11.1257C22.3265 11.6311 22.6785 12.2232 22.9036 12.867C23.1287 13.5109 23.2222 14.1934 23.1787 14.874C23.1807 14.9892 23.2278 15.099 23.3097 15.18C23.3917 15.2609 23.5021 15.3066 23.6173 15.3071L23.6348 15.3301C23.7509 15.3293 23.862 15.2828 23.944 15.2007C24.0261 15.1186 24.0726 15.0076 24.0734 14.8915C24.1128 13.1535 23.5725 11.6956 22.5126 10.5275C21.4473 9.35933 19.9609 8.70417 18.0633 8.57402H18.0009ZM18.7195 10.9321C18.1212 10.9146 18.0983 11.8093 18.6911 11.8268C20.1327 11.9012 20.8327 12.6296 20.9245 14.1281C20.9271 14.2416 20.9737 14.3498 21.0545 14.4296C21.1354 14.5094 21.2441 14.5546 21.3577 14.5557H21.3751C21.4336 14.5532 21.491 14.5391 21.544 14.5142C21.597 14.4892 21.6444 14.454 21.6836 14.4105C21.7228 14.367 21.753 14.3162 21.7723 14.2609C21.7916 14.2057 21.7998 14.1471 21.7962 14.0887C21.6934 12.1353 20.6281 11.035 18.737 10.9332L18.7195 10.9321Z" fill="#F2F2F2"/>
</g>
<defs>
<clipPath id="clip0_22_38">
<rect width="35" height="35" fill="white"/>
</clipPath>
</defs>
</svg>
